<?xml version="1.0" encoding="utf-8" standalone="no"?>
<!DOCTYPE svg PUBLIC "-//W3C//DTD SVG 1.1//EN"
  "http://www.w3.org/Graphics/SVG/1.1/DTD/svg11.dtd">
<svg xmlns:xlink="http://www.w3.org/1999/xlink" width="720pt" height="432pt" viewBox="0 0 720 432" xmlns="http://www.w3.org/2000/svg" version="1.1">
 <metadata>
  <rdf:RDF xmlns:dc="http://purl.org/dc/elements/1.1/" xmlns:cc="http://creativecommons.org/ns#" xmlns:rdf="http://www.w3.org/1999/02/22-rdf-syntax-ns#">
   <cc:Work>
    <dc:type rdf:resource="http://purl.org/dc/dcmitype/StillImage"/>
    <dc:date>2025-11-15T20:48:18.898848</dc:date>
    <dc:format>image/svg+xml</dc:format>
    <dc:creator>
     <cc:Agent>
      <dc:title>Matplotlib v3.10.7, https://matplotlib.org/</dc:title>
     </cc:Agent>
    </dc:creator>
   </cc:Work>
  </rdf:RDF>
 </metadata>
 <defs>
  <style type="text/css">*{stroke-linejoin: round; stroke-linecap: butt}</style>
 </defs>
 <g id="figure_1">
  <g id="patch_1">
   <path d="M 0 432 
L 720 432 
L 720 0 
L 0 0 
z
" style="fill: #ffffff"/>
  </g>
  <g id="axes_1">
   <g id="patch_2">
    <path d="M 90 384.48 
L 648 384.48 
L 648 51.84 
L 90 51.84 
z
" style="fill: #ffffff"/>
   </g>
   <g id="matplotlib.axis_1">
    <g id="xtick_1">
     <g id="line2d_1">
      <path d="M 115.363636 384.48 
L 115.363636 51.84 
" clip-path="url(#p59fe59a410)" style="fill: none; stroke-dasharray: 1.85,0.8; stroke-dashoffset: 0; stroke: #b0b0b0; stroke-opacity: 0.7; stroke-width: 0.5"/>
     </g>
     <g id="line2d_2">
      <defs>
       <path id="mbdfa697727" d="M 0 0 
L 0 3.5 
" style="stroke: #000000; stroke-width: 0.8"/>
      </defs>
      <g>
       <use xlink:href="#mbdfa697727" x="115.363636" y="384.48" style="stroke: #000000; stroke-width: 0.8"/>
      </g>
     </g>
     <g id="text_1">
      <!-- 0 -->
      <g transform="translate(112.182386 399.078438) scale(0.1 -0.1)">
       <defs>
        <path id="DejaVuSans-30" d="M 2034 4250 
Q 1547 4250 1301 3770 
Q 1056 3291 1056 2328 
Q 1056 1369 1301 889 
Q 1547 409 2034 409 
Q 2525 409 2770 889 
Q 3016 1369 3016 2328 
Q 3016 3291 2770 3770 
Q 2525 4250 2034 4250 
z
M 2034 4750 
Q 2819 4750 3233 4129 
Q 3647 3509 3647 2328 
Q 3647 1150 3233 529 
Q 2819 -91 2034 -91 
Q 1250 -91 836 529 
Q 422 1150 422 2328 
Q 422 3509 836 4129 
Q 1250 4750 2034 4750 
z
" transform="scale(0.015625)"/>
       </defs>
       <use xlink:href="#DejaVuSans-30"/>
      </g>
     </g>
    </g>
    <g id="xtick_2">
     <g id="line2d_3">
      <path d="M 216.818182 384.48 
L 216.818182 51.84 
" clip-path="url(#p59fe59a410)" style="fill: none; stroke-dasharray: 1.85,0.8; stroke-dashoffset: 0; stroke: #b0b0b0; stroke-opacity: 0.7; stroke-width: 0.5"/>
     </g>
     <g id="line2d_4">
      <g>
       <use xlink:href="#mbdfa697727" x="216.818182" y="384.48" style="stroke: #000000; stroke-width: 0.8"/>
      </g>
     </g>
     <g id="text_2">
      <!-- 20 -->
      <g transform="translate(210.455682 399.078438) scale(0.1 -0.1)">
       <defs>
        <path id="DejaVuSans-32" d="M 1228 531 
L 3431 531 
L 3431 0 
L 469 0 
L 469 531 
Q 828 903 1448 1529 
Q 2069 2156 2228 2338 
Q 2531 2678 2651 2914 
Q 2772 3150 2772 3378 
Q 2772 3750 2511 3984 
Q 2250 4219 1831 4219 
Q 1534 4219 1204 4116 
Q 875 4013 500 3803 
L 500 4441 
Q 881 4594 1212 4672 
Q 1544 4750 1819 4750 
Q 2544 4750 2975 4387 
Q 3406 4025 3406 3419 
Q 3406 3131 3298 2873 
Q 3191 2616 2906 2266 
Q 2828 2175 2409 1742 
Q 1991 1309 1228 531 
z
" transform="scale(0.015625)"/>
       </defs>
       <use xlink:href="#DejaVuSans-32"/>
       <use xlink:href="#DejaVuSans-30" transform="translate(63.623047 0)"/>
      </g>
     </g>
    </g>
    <g id="xtick_3">
     <g id="line2d_5">
      <path d="M 318.272727 384.48 
L 318.272727 51.84 
" clip-path="url(#p59fe59a410)" style="fill: none; stroke-dasharray: 1.85,0.8; stroke-dashoffset: 0; stroke: #b0b0b0; stroke-opacity: 0.7; stroke-width: 0.5"/>
     </g>
     <g id="line2d_6">
      <g>
       <use xlink:href="#mbdfa697727" x="318.272727" y="384.48" style="stroke: #000000; stroke-width: 0.8"/>
      </g>
     </g>
     <g id="text_3">
      <!-- 40 -->
      <g transform="translate(311.910227 399.078438) scale(0.1 -0.1)">
       <defs>
        <path id="DejaVuSans-34" d="M 2419 4116 
L 825 1625 
L 2419 1625 
L 2419 4116 
z
M 2253 4666 
L 3047 4666 
L 3047 1625 
L 3713 1625 
L 3713 1100 
L 3047 1100 
L 3047 0 
L 2419 0 
L 2419 1100 
L 313 1100 
L 313 1709 
L 2253 4666 
z
" transform="scale(0.015625)"/>
       </defs>
       <use xlink:href="#DejaVuSans-34"/>
       <use xlink:href="#DejaVuSans-30" transform="translate(63.623047 0)"/>
      </g>
     </g>
    </g>
    <g id="xtick_4">
     <g id="line2d_7">
      <path d="M 419.727273 384.48 
L 419.727273 51.84 
" clip-path="url(#p59fe59a410)" style="fill: none; stroke-dasharray: 1.85,0.8; stroke-dashoffset: 0; stroke: #b0b0b0; stroke-opacity: 0.7; stroke-width: 0.5"/>
     </g>
     <g id="line2d_8">
      <g>
       <use xlink:href="#mbdfa697727" x="419.727273" y="384.48" style="stroke: #000000; stroke-width: 0.8"/>
      </g>
     </g>
     <g id="text_4">
      <!-- 60 -->
      <g transform="translate(413.364773 399.078438) scale(0.1 -0.1)">
       <defs>
        <path id="DejaVuSans-36" d="M 2113 2584 
Q 1688 2584 1439 2293 
Q 1191 2003 1191 1497 
Q 1191 994 1439 701 
Q 1688 409 2113 409 
Q 2538 409 2786 701 
Q 3034 994 3034 1497 
Q 3034 2003 2786 2293 
Q 2538 2584 2113 2584 
z
M 3366 4563 
L 3366 3988 
Q 3128 4100 2886 4159 
Q 2644 4219 2406 4219 
Q 1781 4219 1451 3797 
Q 1122 3375 1075 2522 
Q 1259 2794 1537 2939 
Q 1816 3084 2150 3084 
Q 2853 3084 3261 2657 
Q 3669 2231 3669 1497 
Q 3669 778 3244 343 
Q 2819 -91 2113 -91 
Q 1303 -91 875 529 
Q 447 1150 447 2328 
Q 447 3434 972 4092 
Q 1497 4750 2381 4750 
Q 2619 4750 2861 4703 
Q 3103 4656 3366 4563 
z
" transform="scale(0.015625)"/>
       </defs>
       <use xlink:href="#DejaVuSans-36"/>
       <use xlink:href="#DejaVuSans-30" transform="translate(63.623047 0)"/>
      </g>
     </g>
    </g>
    <g id="xtick_5">
     <g id="line2d_9">
      <path d="M 521.181818 384.48 
L 521.181818 51.84 
" clip-path="url(#p59fe59a410)" style="fill: none; stroke-dasharray: 1.85,0.8; stroke-dashoffset: 0; stroke: #b0b0b0; stroke-opacity: 0.7; stroke-width: 0.5"/>
     </g>
     <g id="line2d_10">
      <g>
       <use xlink:href="#mbdfa697727" x="521.181818" y="384.48" style="stroke: #000000; stroke-width: 0.8"/>
      </g>
     </g>
     <g id="text_5">
      <!-- 80 -->
      <g transform="translate(514.819318 399.078438) scale(0.1 -0.1)">
       <defs>
        <path id="DejaVuSans-38" d="M 2034 2216 
Q 1584 2216 1326 1975 
Q 1069 1734 1069 1313 
Q 1069 891 1326 650 
Q 1584 409 2034 409 
Q 2484 409 2743 651 
Q 3003 894 3003 1313 
Q 3003 1734 2745 1975 
Q 2488 2216 2034 2216 
z
M 1403 2484 
Q 997 2584 770 2862 
Q 544 3141 544 3541 
Q 544 4100 942 4425 
Q 1341 4750 2034 4750 
Q 2731 4750 3128 4425 
Q 3525 4100 3525 3541 
Q 3525 3141 3298 2862 
Q 3072 2584 2669 2484 
Q 3125 2378 3379 2068 
Q 3634 1759 3634 1313 
Q 3634 634 3220 271 
Q 2806 -91 2034 -91 
Q 1263 -91 848 271 
Q 434 634 434 1313 
Q 434 1759 690 2068 
Q 947 2378 1403 2484 
z
M 1172 3481 
Q 1172 3119 1398 2916 
Q 1625 2713 2034 2713 
Q 2441 2713 2670 2916 
Q 2900 3119 2900 3481 
Q 2900 3844 2670 4047 
Q 2441 4250 2034 4250 
Q 1625 4250 1398 4047 
Q 1172 3844 1172 3481 
z
" transform="scale(0.015625)"/>
       </defs>
       <use xlink:href="#DejaVuSans-38"/>
       <use xlink:href="#DejaVuSans-30" transform="translate(63.623047 0)"/>
      </g>
     </g>
    </g>
    <g id="xtick_6">
     <g id="line2d_11">
      <path d="M 622.636364 384.48 
L 622.636364 51.84 
" clip-path="url(#p59fe59a410)" style="fill: none; stroke-dasharray: 1.85,0.8; stroke-dashoffset: 0; stroke: #b0b0b0; stroke-opacity: 0.7; stroke-width: 0.5"/>
     </g>
     <g id="line2d_12">
      <g>
       <use xlink:href="#mbdfa697727" x="622.636364" y="384.48" style="stroke: #000000; stroke-width: 0.8"/>
      </g>
     </g>
     <g id="text_6">
      <!-- 100 -->
      <g transform="translate(613.092614 399.078438) scale(0.1 -0.1)">
       <defs>
        <path id="DejaVuSans-31" d="M 794 531 
L 1825 531 
L 1825 4091 
L 703 3866 
L 703 4441 
L 1819 4666 
L 2450 4666 
L 2450 531 
L 3481 531 
L 3481 0 
L 794 0 
L 794 531 
z
" transform="scale(0.015625)"/>
       </defs>
       <use xlink:href="#DejaVuSans-31"/>
       <use xlink:href="#DejaVuSans-30" transform="translate(63.623047 0)"/>
       <use xlink:href="#DejaVuSans-30" transform="translate(127.246094 0)"/>
      </g>
     </g>
    </g>
    <g id="text_7">
     <!-- Perturbation Percentage (%) -->
     <g transform="translate(298.08125 412.756563) scale(0.1 -0.1)">
      <defs>
       <path id="DejaVuSans-50" d="M 1259 4147 
L 1259 2394 
L 2053 2394 
Q 2494 2394 2734 2622 
Q 2975 2850 2975 3272 
Q 2975 3691 2734 3919 
Q 2494 4147 2053 4147 
L 1259 4147 
z
M 628 4666 
L 2053 4666 
Q 2838 4666 3239 4311 
Q 3641 3956 3641 3272 
Q 3641 2581 3239 2228 
Q 2838 1875 2053 1875 
L 1259 1875 
L 1259 0 
L 628 0 
L 628 4666 
z
" transform="scale(0.015625)"/>
       <path id="DejaVuSans-65" d="M 3597 1894 
L 3597 1613 
L 953 1613 
Q 991 1019 1311 708 
Q 1631 397 2203 397 
Q 2534 397 2845 478 
Q 3156 559 3463 722 
L 3463 178 
Q 3153 47 2828 -22 
Q 2503 -91 2169 -91 
Q 1331 -91 842 396 
Q 353 884 353 1716 
Q 353 2575 817 3079 
Q 1281 3584 2069 3584 
Q 2775 3584 3186 3129 
Q 3597 2675 3597 1894 
z
M 3022 2063 
Q 3016 2534 2758 2815 
Q 2500 3097 2075 3097 
Q 1594 3097 1305 2825 
Q 1016 2553 972 2059 
L 3022 2063 
z
" transform="scale(0.015625)"/>
       <path id="DejaVuSans-72" d="M 2631 2963 
Q 2534 3019 2420 3045 
Q 2306 3072 2169 3072 
Q 1681 3072 1420 2755 
Q 1159 2438 1159 1844 
L 1159 0 
L 581 0 
L 581 3500 
L 1159 3500 
L 1159 2956 
Q 1341 3275 1631 3429 
Q 1922 3584 2338 3584 
Q 2397 3584 2469 3576 
Q 2541 3569 2628 3553 
L 2631 2963 
z
" transform="scale(0.015625)"/>
       <path id="DejaVuSans-74" d="M 1172 4494 
L 1172 3500 
L 2356 3500 
L 2356 3053 
L 1172 3053 
L 1172 1153 
Q 1172 725 1289 603 
Q 1406 481 1766 481 
L 2356 481 
L 2356 0 
L 1766 0 
Q 1100 0 847 248 
Q 594 497 594 1153 
L 594 3053 
L 172 3053 
L 172 3500 
L 594 3500 
L 594 4494 
L 1172 4494 
z
" transform="scale(0.015625)"/>
       <path id="DejaVuSans-75" d="M 544 1381 
L 544 3500 
L 1119 3500 
L 1119 1403 
Q 1119 906 1312 657 
Q 1506 409 1894 409 
Q 2359 409 2629 706 
Q 2900 1003 2900 1516 
L 2900 3500 
L 3475 3500 
L 3475 0 
L 2900 0 
L 2900 538 
Q 2691 219 2414 64 
Q 2138 -91 1772 -91 
Q 1169 -91 856 284 
Q 544 659 544 1381 
z
M 1991 3584 
L 1991 3584 
z
" transform="scale(0.015625)"/>
       <path id="DejaVuSans-62" d="M 3116 1747 
Q 3116 2381 2855 2742 
Q 2594 3103 2138 3103 
Q 1681 3103 1420 2742 
Q 1159 2381 1159 1747 
Q 1159 1113 1420 752 
Q 1681 391 2138 391 
Q 2594 391 2855 752 
Q 3116 1113 3116 1747 
z
M 1159 2969 
Q 1341 3281 1617 3432 
Q 1894 3584 2278 3584 
Q 2916 3584 3314 3078 
Q 3713 2572 3713 1747 
Q 3713 922 3314 415 
Q 2916 -91 2278 -91 
Q 1894 -91 1617 61 
Q 1341 213 1159 525 
L 1159 0 
L 581 0 
L 581 4863 
L 1159 4863 
L 1159 2969 
z
" transform="scale(0.015625)"/>
       <path id="DejaVuSans-61" d="M 2194 1759 
Q 1497 1759 1228 1600 
Q 959 1441 959 1056 
Q 959 750 1161 570 
Q 1363 391 1709 391 
Q 2188 391 2477 730 
Q 2766 1069 2766 1631 
L 2766 1759 
L 2194 1759 
z
M 3341 1997 
L 3341 0 
L 2766 0 
L 2766 531 
Q 2569 213 2275 61 
Q 1981 -91 1556 -91 
Q 1019 -91 701 211 
Q 384 513 384 1019 
Q 384 1609 779 1909 
Q 1175 2209 1959 2209 
L 2766 2209 
L 2766 2266 
Q 2766 2663 2505 2880 
Q 2244 3097 1772 3097 
Q 1472 3097 1187 3025 
Q 903 2953 641 2809 
L 641 3341 
Q 956 3463 1253 3523 
Q 1550 3584 1831 3584 
Q 2591 3584 2966 3190 
Q 3341 2797 3341 1997 
z
" transform="scale(0.015625)"/>
       <path id="DejaVuSans-69" d="M 603 3500 
L 1178 3500 
L 1178 0 
L 603 0 
L 603 3500 
z
M 603 4863 
L 1178 4863 
L 1178 4134 
L 603 4134 
L 603 4863 
z
" transform="scale(0.015625)"/>
       <path id="DejaVuSans-6f" d="M 1959 3097 
Q 1497 3097 1228 2736 
Q 959 2375 959 1747 
Q 959 1119 1226 758 
Q 1494 397 1959 397 
Q 2419 397 2687 759 
Q 2956 1122 2956 1747 
Q 2956 2369 2687 2733 
Q 2419 3097 1959 3097 
z
M 1959 3584 
Q 2709 3584 3137 3096 
Q 3566 2609 3566 1747 
Q 3566 888 3137 398 
Q 2709 -91 1959 -91 
Q 1206 -91 779 398 
Q 353 888 353 1747 
Q 353 2609 779 3096 
Q 1206 3584 1959 3584 
z
" transform="scale(0.015625)"/>
       <path id="DejaVuSans-6e" d="M 3513 2113 
L 3513 0 
L 2938 0 
L 2938 2094 
Q 2938 2591 2744 2837 
Q 2550 3084 2163 3084 
Q 1697 3084 1428 2787 
Q 1159 2491 1159 1978 
L 1159 0 
L 581 0 
L 581 3500 
L 1159 3500 
L 1159 2956 
Q 1366 3272 1645 3428 
Q 1925 3584 2291 3584 
Q 2894 3584 3203 3211 
Q 3513 2838 3513 2113 
z
" transform="scale(0.015625)"/>
       <path id="DejaVuSans-20" transform="scale(0.015625)"/>
       <path id="DejaVuSans-63" d="M 3122 3366 
L 3122 2828 
Q 2878 2963 2633 3030 
Q 2388 3097 2138 3097 
Q 1578 3097 1268 2742 
Q 959 2388 959 1747 
Q 959 1106 1268 751 
Q 1578 397 2138 397 
Q 2388 397 2633 464 
Q 2878 531 3122 666 
L 3122 134 
Q 2881 22 2623 -34 
Q 2366 -91 2075 -91 
Q 1284 -91 818 406 
Q 353 903 353 1747 
Q 353 2603 823 3093 
Q 1294 3584 2113 3584 
Q 2378 3584 2631 3529 
Q 2884 3475 3122 3366 
z
" transform="scale(0.015625)"/>
       <path id="DejaVuSans-67" d="M 2906 1791 
Q 2906 2416 2648 2759 
Q 2391 3103 1925 3103 
Q 1463 3103 1205 2759 
Q 947 2416 947 1791 
Q 947 1169 1205 825 
Q 1463 481 1925 481 
Q 2391 481 2648 825 
Q 2906 1169 2906 1791 
z
M 3481 434 
Q 3481 -459 3084 -895 
Q 2688 -1331 1869 -1331 
Q 1566 -1331 1297 -1286 
Q 1028 -1241 775 -1147 
L 775 -588 
Q 1028 -725 1275 -790 
Q 1522 -856 1778 -856 
Q 2344 -856 2625 -561 
Q 2906 -266 2906 331 
L 2906 616 
Q 2728 306 2450 153 
Q 2172 0 1784 0 
Q 1141 0 747 490 
Q 353 981 353 1791 
Q 353 2603 747 3093 
Q 1141 3584 1784 3584 
Q 2172 3584 2450 3431 
Q 2728 3278 2906 2969 
L 2906 3500 
L 3481 3500 
L 3481 434 
z
" transform="scale(0.015625)"/>
       <path id="DejaVuSans-28" d="M 1984 4856 
Q 1566 4138 1362 3434 
Q 1159 2731 1159 2009 
Q 1159 1288 1364 580 
Q 1569 -128 1984 -844 
L 1484 -844 
Q 1016 -109 783 600 
Q 550 1309 550 2009 
Q 550 2706 781 3412 
Q 1013 4119 1484 4856 
L 1984 4856 
z
" transform="scale(0.015625)"/>
       <path id="DejaVuSans-25" d="M 4653 2053 
Q 4381 2053 4226 1822 
Q 4072 1591 4072 1178 
Q 4072 772 4226 539 
Q 4381 306 4653 306 
Q 4919 306 5073 539 
Q 5228 772 5228 1178 
Q 5228 1588 5073 1820 
Q 4919 2053 4653 2053 
z
M 4653 2450 
Q 5147 2450 5437 2106 
Q 5728 1763 5728 1178 
Q 5728 594 5436 251 
Q 5144 -91 4653 -91 
Q 4153 -91 3862 251 
Q 3572 594 3572 1178 
Q 3572 1766 3864 2108 
Q 4156 2450 4653 2450 
z
M 1428 4353 
Q 1159 4353 1004 4120 
Q 850 3888 850 3481 
Q 850 3069 1003 2837 
Q 1156 2606 1428 2606 
Q 1700 2606 1854 2837 
Q 2009 3069 2009 3481 
Q 2009 3884 1853 4118 
Q 1697 4353 1428 4353 
z
M 4250 4750 
L 4750 4750 
L 1831 -91 
L 1331 -91 
L 4250 4750 
z
M 1428 4750 
Q 1922 4750 2215 4408 
Q 2509 4066 2509 3481 
Q 2509 2891 2217 2550 
Q 1925 2209 1428 2209 
Q 931 2209 642 2551 
Q 353 2894 353 3481 
Q 353 4063 643 4406 
Q 934 4750 1428 4750 
z
" transform="scale(0.015625)"/>
       <path id="DejaVuSans-29" d="M 513 4856 
L 1013 4856 
Q 1481 4119 1714 3412 
Q 1947 2706 1947 2009 
Q 1947 1309 1714 600 
Q 1481 -109 1013 -844 
L 513 -844 
Q 928 -128 1133 580 
Q 1338 1288 1338 2009 
Q 1338 2731 1133 3434 
Q 928 4138 513 4856 
z
" transform="scale(0.015625)"/>
      </defs>
      <use xlink:href="#DejaVuSans-50"/>
      <use xlink:href="#DejaVuSans-65" transform="translate(56.677734 0)"/>
      <use xlink:href="#DejaVuSans-72" transform="translate(118.201172 0)"/>
      <use xlink:href="#DejaVuSans-74" transform="translate(159.314453 0)"/>
      <use xlink:href="#DejaVuSans-75" transform="translate(198.523438 0)"/>
      <use xlink:href="#DejaVuSans-72" transform="translate(261.902344 0)"/>
      <use xlink:href="#DejaVuSans-62" transform="translate(303.015625 0)"/>
      <use xlink:href="#DejaVuSans-61" transform="translate(366.492188 0)"/>
      <use xlink:href="#DejaVuSans-74" transform="translate(427.771484 0)"/>
      <use xlink:href="#DejaVuSans-69" transform="translate(466.980469 0)"/>
      <use xlink:href="#DejaVuSans-6f" transform="translate(494.763672 0)"/>
      <use xlink:href="#DejaVuSans-6e" transform="translate(555.945312 0)"/>
      <use xlink:href="#DejaVuSans-20" transform="translate(619.324219 0)"/>
      <use xlink:href="#DejaVuSans-50" transform="translate(651.111328 0)"/>
      <use xlink:href="#DejaVuSans-65" transform="translate(707.789062 0)"/>
      <use xlink:href="#DejaVuSans-72" transform="translate(769.3125 0)"/>
      <use xlink:href="#DejaVuSans-63" transform="translate(808.175781 0)"/>
      <use xlink:href="#DejaVuSans-65" transform="translate(863.15625 0)"/>
      <use xlink:href="#DejaVuSans-6e" transform="translate(924.679688 0)"/>
      <use xlink:href="#DejaVuSans-74" transform="translate(988.058594 0)"/>
      <use xlink:href="#DejaVuSans-61" transform="translate(1027.267578 0)"/>
      <use xlink:href="#DejaVuSans-67" transform="translate(1088.546875 0)"/>
      <use xlink:href="#DejaVuSans-65" transform="translate(1152.023438 0)"/>
      <use xlink:href="#DejaVuSans-20" transform="translate(1213.546875 0)"/>
      <use xlink:href="#DejaVuSans-28" transform="translate(1245.333984 0)"/>
      <use xlink:href="#DejaVuSans-25" transform="translate(1284.347656 0)"/>
      <use xlink:href="#DejaVuSans-29" transform="translate(1379.367188 0)"/>
     </g>
    </g>
   </g>
   <g id="matplotlib.axis_2">
    <g id="ytick_1">
     <g id="line2d_13">
      <path d="M 90 356.76 
L 648 356.76 
" clip-path="url(#p59fe59a410)" style="fill: none; stroke-dasharray: 1.85,0.8; stroke-dashoffset: 0; stroke: #b0b0b0; stroke-opacity: 0.7; stroke-width: 0.5"/>
     </g>
     <g id="line2d_14">
      <defs>
       <path id="m9284b26dbb" d="M 0 0 
L -3.5 0 
" style="stroke: #000000; stroke-width: 0.8"/>
      </defs>
      <g>
       <use xlink:href="#m9284b26dbb" x="90" y="356.76" style="stroke: #000000; stroke-width: 0.8"/>
      </g>
     </g>
     <g id="text_8">
      <!-- 0.0 -->
      <g transform="translate(67.096875 360.559219) scale(0.1 -0.1)">
       <defs>
        <path id="DejaVuSans-2e" d="M 684 794 
L 1344 794 
L 1344 0 
L 684 0 
L 684 794 
z
" transform="scale(0.015625)"/>
       </defs>
       <use xlink:href="#DejaVuSans-30"/>
       <use xlink:href="#DejaVuSans-2e" transform="translate(63.623047 0)"/>
       <use xlink:href="#DejaVuSans-30" transform="translate(95.410156 0)"/>
      </g>
     </g>
    </g>
    <g id="ytick_2">
     <g id="line2d_15">
      <path d="M 90 301.32 
L 648 301.32 
" clip-path="url(#p59fe59a410)" style="fill: none; stroke-dasharray: 1.85,0.8; stroke-dashoffset: 0; stroke: #b0b0b0; stroke-opacity: 0.7; stroke-width: 0.5"/>
     </g>
     <g id="line2d_16">
      <g>
       <use xlink:href="#m9284b26dbb" x="90" y="301.32" style="stroke: #000000; stroke-width: 0.8"/>
      </g>
     </g>
     <g id="text_9">
      <!-- 0.2 -->
      <g transform="translate(67.096875 305.119219) scale(0.1 -0.1)">
       <use xlink:href="#DejaVuSans-30"/>
       <use xlink:href="#DejaVuSans-2e" transform="translate(63.623047 0)"/>
       <use xlink:href="#DejaVuSans-32" transform="translate(95.410156 0)"/>
      </g>
     </g>
    </g>
    <g id="ytick_3">
     <g id="line2d_17">
      <path d="M 90 245.88 
L 648 245.88 
" clip-path="url(#p59fe59a410)" style="fill: none; stroke-dasharray: 1.85,0.8; stroke-dashoffset: 0; stroke: #b0b0b0; stroke-opacity: 0.7; stroke-width: 0.5"/>
     </g>
     <g id="line2d_18">
      <g>
       <use xlink:href="#m9284b26dbb" x="90" y="245.88" style="stroke: #000000; stroke-width: 0.8"/>
      </g>
     </g>
     <g id="text_10">
      <!-- 0.4 -->
      <g transform="translate(67.096875 249.679219) scale(0.1 -0.1)">
       <use xlink:href="#DejaVuSans-30"/>
       <use xlink:href="#DejaVuSans-2e" transform="translate(63.623047 0)"/>
       <use xlink:href="#DejaVuSans-34" transform="translate(95.410156 0)"/>
      </g>
     </g>
    </g>
    <g id="ytick_4">
     <g id="line2d_19">
      <path d="M 90 190.44 
L 648 190.44 
" clip-path="url(#p59fe59a410)" style="fill: none; stroke-dasharray: 1.85,0.8; stroke-dashoffset: 0; stroke: #b0b0b0; stroke-opacity: 0.7; stroke-width: 0.5"/>
     </g>
     <g id="line2d_20">
      <g>
       <use xlink:href="#m9284b26dbb" x="90" y="190.44" style="stroke: #000000; stroke-width: 0.8"/>
      </g>
     </g>
     <g id="text_11">
      <!-- 0.6 -->
      <g transform="translate(67.096875 194.239219) scale(0.1 -0.1)">
       <use xlink:href="#DejaVuSans-30"/>
       <use xlink:href="#DejaVuSans-2e" transform="translate(63.623047 0)"/>
       <use xlink:href="#DejaVuSans-36" transform="translate(95.410156 0)"/>
      </g>
     </g>
    </g>
    <g id="ytick_5">
     <g id="line2d_21">
      <path d="M 90 135 
L 648 135 
" clip-path="url(#p59fe59a410)" style="fill: none; stroke-dasharray: 1.85,0.8; stroke-dashoffset: 0; stroke: #b0b0b0; stroke-opacity: 0.7; stroke-width: 0.5"/>
     </g>
     <g id="line2d_22">
      <g>
       <use xlink:href="#m9284b26dbb" x="90" y="135" style="stroke: #000000; stroke-width: 0.8"/>
      </g>
     </g>
     <g id="text_12">
      <!-- 0.8 -->
      <g transform="translate(67.096875 138.799219) scale(0.1 -0.1)">
       <use xlink:href="#DejaVuSans-30"/>
       <use xlink:href="#DejaVuSans-2e" transform="translate(63.623047 0)"/>
       <use xlink:href="#DejaVuSans-38" transform="translate(95.410156 0)"/>
      </g>
     </g>
    </g>
    <g id="ytick_6">
     <g id="line2d_23">
      <path d="M 90 79.56 
L 648 79.56 
" clip-path="url(#p59fe59a410)" style="fill: none; stroke-dasharray: 1.85,0.8; stroke-dashoffset: 0; stroke: #b0b0b0; stroke-opacity: 0.7; stroke-width: 0.5"/>
     </g>
     <g id="line2d_24">
      <g>
       <use xlink:href="#m9284b26dbb" x="90" y="79.56" style="stroke: #000000; stroke-width: 0.8"/>
      </g>
     </g>
     <g id="text_13">
      <!-- 1.0 -->
      <g transform="translate(67.096875 83.359219) scale(0.1 -0.1)">
       <use xlink:href="#DejaVuSans-31"/>
       <use xlink:href="#DejaVuSans-2e" transform="translate(63.623047 0)"/>
       <use xlink:href="#DejaVuSans-30" transform="translate(95.410156 0)"/>
      </g>
     </g>
    </g>
    <g id="text_14">
     <!-- Average Accuracy -->
     <g transform="translate(61.017187 263.11) rotate(-90) scale(0.1 -0.1)">
      <defs>
       <path id="DejaVuSans-41" d="M 2188 4044 
L 1331 1722 
L 3047 1722 
L 2188 4044 
z
M 1831 4666 
L 2547 4666 
L 4325 0 
L 3669 0 
L 3244 1197 
L 1141 1197 
L 716 0 
L 50 0 
L 1831 4666 
z
" transform="scale(0.015625)"/>
       <path id="DejaVuSans-76" d="M 191 3500 
L 800 3500 
L 1894 563 
L 2988 3500 
L 3597 3500 
L 2284 0 
L 1503 0 
L 191 3500 
z
" transform="scale(0.015625)"/>
       <path id="DejaVuSans-79" d="M 2059 -325 
Q 1816 -950 1584 -1140 
Q 1353 -1331 966 -1331 
L 506 -1331 
L 506 -850 
L 844 -850 
Q 1081 -850 1212 -737 
Q 1344 -625 1503 -206 
L 1606 56 
L 191 3500 
L 800 3500 
L 1894 763 
L 2988 3500 
L 3597 3500 
L 2059 -325 
z
" transform="scale(0.015625)"/>
      </defs>
      <use xlink:href="#DejaVuSans-41"/>
      <use xlink:href="#DejaVuSans-76" transform="translate(62.533203 0)"/>
      <use xlink:href="#DejaVuSans-65" transform="translate(121.712891 0)"/>
      <use xlink:href="#DejaVuSans-72" transform="translate(183.236328 0)"/>
      <use xlink:href="#DejaVuSans-61" transform="translate(224.349609 0)"/>
      <use xlink:href="#DejaVuSans-67" transform="translate(285.628906 0)"/>
      <use xlink:href="#DejaVuSans-65" transform="translate(349.105469 0)"/>
      <use xlink:href="#DejaVuSans-20" transform="translate(410.628906 0)"/>
      <use xlink:href="#DejaVuSans-41" transform="translate(442.416016 0)"/>
      <use xlink:href="#DejaVuSans-63" transform="translate(509.074219 0)"/>
      <use xlink:href="#DejaVuSans-63" transform="translate(564.054688 0)"/>
      <use xlink:href="#DejaVuSans-75" transform="translate(619.035156 0)"/>
      <use xlink:href="#DejaVuSans-72" transform="translate(682.414062 0)"/>
      <use xlink:href="#DejaVuSans-61" transform="translate(723.527344 0)"/>
      <use xlink:href="#DejaVuSans-63" transform="translate(784.806641 0)"/>
      <use xlink:href="#DejaVuSans-79" transform="translate(839.787109 0)"/>
     </g>
    </g>
   </g>
   <g id="line2d_25">
    <path d="M 115.363636 103.24674 
L 140.727273 107.33544 
L 166.090909 111.0222 
L 191.454545 114.54264 
L 216.818182 118.27098 
L 242.181818 122.05476 
L 267.545455 126.24048 
L 292.909091 131.86764 
L 318.272727 139.65696 
L 343.636364 152.03394 
L 369 181.97154 
L 394.363636 219.86478 
L 419.727273 248.8599 
L 445.090909 277.35606 
L 470.454545 300.64086 
L 495.818182 327.08574 
L 521.181818 338.85288 
L 546.545455 341.26452 
L 571.909091 342.1377 
L 597.272727 343.26036 
L 622.636364 346.86396 
" clip-path="url(#p59fe59a410)" style="fill: none; stroke: #00b0f0; stroke-width: 2.5; stroke-linecap: square"/>
    <defs>
     <path id="mcecb7b72e9" d="M 0 4 
C 1.060812 4 2.078319 3.578535 2.828427 2.828427 
C 3.578535 2.078319 4 1.060812 4 0 
C 4 -1.060812 3.578535 -2.078319 2.828427 -2.828427 
C 2.078319 -3.578535 1.060812 -4 0 -4 
C -1.060812 -4 -2.078319 -3.578535 -2.828427 -2.828427 
C -3.578535 -2.078319 -4 -1.060812 -4 0 
C -4 1.060812 -3.578535 2.078319 -2.828427 2.828427 
C -2.078319 3.578535 -1.060812 4 0 4 
z
" style="stroke: #00b0f0"/>
    </defs>
    <g clip-path="url(#p59fe59a410)">
     <use xlink:href="#mcecb7b72e9" x="115.363636" y="103.24674" style="fill: #00b0f0; stroke: #00b0f0"/>
     <use xlink:href="#mcecb7b72e9" x="140.727273" y="107.33544" style="fill: #00b0f0; stroke: #00b0f0"/>
     <use xlink:href="#mcecb7b72e9" x="166.090909" y="111.0222" style="fill: #00b0f0; stroke: #00b0f0"/>
     <use xlink:href="#mcecb7b72e9" x="191.454545" y="114.54264" style="fill: #00b0f0; stroke: #00b0f0"/>
     <use xlink:href="#mcecb7b72e9" x="216.818182" y="118.27098" style="fill: #00b0f0; stroke: #00b0f0"/>
     <use xlink:href="#mcecb7b72e9" x="242.181818" y="122.05476" style="fill: #00b0f0; stroke: #00b0f0"/>
     <use xlink:href="#mcecb7b72e9" x="267.545455" y="126.24048" style="fill: #00b0f0; stroke: #00b0f0"/>
     <use xlink:href="#mcecb7b72e9" x="292.909091" y="131.86764" style="fill: #00b0f0; stroke: #00b0f0"/>
     <use xlink:href="#mcecb7b72e9" x="318.272727" y="139.65696" style="fill: #00b0f0; stroke: #00b0f0"/>
     <use xlink:href="#mcecb7b72e9" x="343.636364" y="152.03394" style="fill: #00b0f0; stroke: #00b0f0"/>
     <use xlink:href="#mcecb7b72e9" x="369" y="181.97154" style="fill: #00b0f0; stroke: #00b0f0"/>
     <use xlink:href="#mcecb7b72e9" x="394.363636" y="219.86478" style="fill: #00b0f0; stroke: #00b0f0"/>
     <use xlink:href="#mcecb7b72e9" x="419.727273" y="248.8599" style="fill: #00b0f0; stroke: #00b0f0"/>
     <use xlink:href="#mcecb7b72e9" x="445.090909" y="277.35606" style="fill: #00b0f0; stroke: #00b0f0"/>
     <use xlink:href="#mcecb7b72e9" x="470.454545" y="300.64086" style="fill: #00b0f0; stroke: #00b0f0"/>
     <use xlink:href="#mcecb7b72e9" x="495.818182" y="327.08574" style="fill: #00b0f0; stroke: #00b0f0"/>
     <use xlink:href="#mcecb7b72e9" x="521.181818" y="338.85288" style="fill: #00b0f0; stroke: #00b0f0"/>
     <use xlink:href="#mcecb7b72e9" x="546.545455" y="341.26452" style="fill: #00b0f0; stroke: #00b0f0"/>
     <use xlink:href="#mcecb7b72e9" x="571.909091" y="342.1377" style="fill: #00b0f0; stroke: #00b0f0"/>
     <use xlink:href="#mcecb7b72e9" x="597.272727" y="343.26036" style="fill: #00b0f0; stroke: #00b0f0"/>
     <use xlink:href="#mcecb7b72e9" x="622.636364" y="346.86396" style="fill: #00b0f0; stroke: #00b0f0"/>
    </g>
   </g>
   <g id="line2d_26">
    <path d="M 115.363636 80.03124 
L 140.727273 81.37566 
L 166.090909 85.90788 
L 191.454545 89.262 
L 216.818182 92.57454 
L 242.181818 97.74432 
L 267.545455 103.89816 
L 292.909091 113.3091 
L 318.272727 128.6244 
L 343.636364 158.60358 
L 369 189.31734 
L 394.363636 218.67282 
L 419.727273 248.15304 
L 445.090909 267.65406 
L 470.454545 290.86956 
L 495.818182 319.98942 
L 521.181818 332.80992 
L 546.545455 344.10582 
L 571.909091 348.9984 
L 597.272727 352.602 
L 622.636364 354.00186 
" clip-path="url(#p59fe59a410)" style="fill: none; stroke-dasharray: 9.25,4; stroke-dashoffset: 0; stroke: #12b65c; stroke-width: 2.5"/>
    <defs>
     <path id="md5883bdcc4" d="M -4 4 
L 4 4 
L 4 -4 
L -4 -4 
z
" style="stroke: #12b65c; stroke-linejoin: miter"/>
    </defs>
    <g clip-path="url(#p59fe59a410)">
     <use xlink:href="#md5883bdcc4" x="115.363636" y="80.03124" style="fill: #12b65c; stroke: #12b65c; stroke-linejoin: miter"/>
     <use xlink:href="#md5883bdcc4" x="140.727273" y="81.37566" style="fill: #12b65c; stroke: #12b65c; stroke-linejoin: miter"/>
     <use xlink:href="#md5883bdcc4" x="166.090909" y="85.90788" style="fill: #12b65c; stroke: #12b65c; stroke-linejoin: miter"/>
     <use xlink:href="#md5883bdcc4" x="191.454545" y="89.262" style="fill: #12b65c; stroke: #12b65c; stroke-linejoin: miter"/>
     <use xlink:href="#md5883bdcc4" x="216.818182" y="92.57454" style="fill: #12b65c; stroke: #12b65c; stroke-linejoin: miter"/>
     <use xlink:href="#md5883bdcc4" x="242.181818" y="97.74432" style="fill: #12b65c; stroke: #12b65c; stroke-linejoin: miter"/>
     <use xlink:href="#md5883bdcc4" x="267.545455" y="103.89816" style="fill: #12b65c; stroke: #12b65c; stroke-linejoin: miter"/>
     <use xlink:href="#md5883bdcc4" x="292.909091" y="113.3091" style="fill: #12b65c; stroke: #12b65c; stroke-linejoin: miter"/>
     <use xlink:href="#md5883bdcc4" x="318.272727" y="128.6244" style="fill: #12b65c; stroke: #12b65c; stroke-linejoin: miter"/>
     <use xlink:href="#md5883bdcc4" x="343.636364" y="158.60358" style="fill: #12b65c; stroke: #12b65c; stroke-linejoin: miter"/>
     <use xlink:href="#md5883bdcc4" x="369" y="189.31734" style="fill: #12b65c; stroke: #12b65c; stroke-linejoin: miter"/>
     <use xlink:href="#md5883bdcc4" x="394.363636" y="218.67282" style="fill: #12b65c; stroke: #12b65c; stroke-linejoin: miter"/>
     <use xlink:href="#md5883bdcc4" x="419.727273" y="248.15304" style="fill: #12b65c; stroke: #12b65c; stroke-linejoin: miter"/>
     <use xlink:href="#md5883bdcc4" x="445.090909" y="267.65406" style="fill: #12b65c; stroke: #12b65c; stroke-linejoin: miter"/>
     <use xlink:href="#md5883bdcc4" x="470.454545" y="290.86956" style="fill: #12b65c; stroke: #12b65c; stroke-linejoin: miter"/>
     <use xlink:href="#md5883bdcc4" x="495.818182" y="319.98942" style="fill: #12b65c; stroke: #12b65c; stroke-linejoin: miter"/>
     <use xlink:href="#md5883bdcc4" x="521.181818" y="332.80992" style="fill: #12b65c; stroke: #12b65c; stroke-linejoin: miter"/>
     <use xlink:href="#md5883bdcc4" x="546.545455" y="344.10582" style="fill: #12b65c; stroke: #12b65c; stroke-linejoin: miter"/>
     <use xlink:href="#md5883bdcc4" x="571.909091" y="348.9984" style="fill: #12b65c; stroke: #12b65c; stroke-linejoin: miter"/>
     <use xlink:href="#md5883bdcc4" x="597.272727" y="352.602" style="fill: #12b65c; stroke: #12b65c; stroke-linejoin: miter"/>
     <use xlink:href="#md5883bdcc4" x="622.636364" y="354.00186" style="fill: #12b65c; stroke: #12b65c; stroke-linejoin: miter"/>
    </g>
   </g>
   <g id="line2d_27">
    <path d="M 115.363636 94.95846 
L 140.727273 108.08388 
L 166.090909 120.62718 
L 191.454545 132.5745 
L 216.818182 145.58904 
L 242.181818 158.09076 
L 267.545455 170.8281 
L 292.909091 183.73176 
L 318.272727 196.57998 
L 343.636364 209.62224 
L 369 222.63678 
L 394.363636 236.51064 
L 419.727273 250.28748 
L 445.090909 263.31588 
L 470.454545 277.3422 
L 495.818182 289.64988 
L 521.181818 303.45444 
L 546.545455 316.57986 
L 571.909091 328.87368 
L 597.272727 340.66854 
L 622.636364 351.92286 
" clip-path="url(#p59fe59a410)" style="fill: none; stroke-dasharray: 16,4,2.5,4; stroke-dashoffset: 0; stroke: #ffc000; stroke-width: 2.5"/>
    <defs>
     <path id="m240c8bb754" d="M 0 -4 
L -4 4 
L 4 4 
z
" style="stroke: #ffc000; stroke-linejoin: miter"/>
    </defs>
    <g clip-path="url(#p59fe59a410)">
     <use xlink:href="#m240c8bb754" x="115.363636" y="94.95846" style="fill: #ffc000; stroke: #ffc000; stroke-linejoin: miter"/>
     <use xlink:href="#m240c8bb754" x="140.727273" y="108.08388" style="fill: #ffc000; stroke: #ffc000; stroke-linejoin: miter"/>
     <use xlink:href="#m240c8bb754" x="166.090909" y="120.62718" style="fill: #ffc000; stroke: #ffc000; stroke-linejoin: miter"/>
     <use xlink:href="#m240c8bb754" x="191.454545" y="132.5745" style="fill: #ffc000; stroke: #ffc000; stroke-linejoin: miter"/>
     <use xlink:href="#m240c8bb754" x="216.818182" y="145.58904" style="fill: #ffc000; stroke: #ffc000; stroke-linejoin: miter"/>
     <use xlink:href="#m240c8bb754" x="242.181818" y="158.09076" style="fill: #ffc000; stroke: #ffc000; stroke-linejoin: miter"/>
     <use xlink:href="#m240c8bb754" x="267.545455" y="170.8281" style="fill: #ffc000; stroke: #ffc000; stroke-linejoin: miter"/>
     <use xlink:href="#m240c8bb754" x="292.909091" y="183.73176" style="fill: #ffc000; stroke: #ffc000; stroke-linejoin: miter"/>
     <use xlink:href="#m240c8bb754" x="318.272727" y="196.57998" style="fill: #ffc000; stroke: #ffc000; stroke-linejoin: miter"/>
     <use xlink:href="#m240c8bb754" x="343.636364" y="209.62224" style="fill: #ffc000; stroke: #ffc000; stroke-linejoin: miter"/>
     <use xlink:href="#m240c8bb754" x="369" y="222.63678" style="fill: #ffc000; stroke: #ffc000; stroke-linejoin: miter"/>
     <use xlink:href="#m240c8bb754" x="394.363636" y="236.51064" style="fill: #ffc000; stroke: #ffc000; stroke-linejoin: miter"/>
     <use xlink:href="#m240c8bb754" x="419.727273" y="250.28748" style="fill: #ffc000; stroke: #ffc000; stroke-linejoin: miter"/>
     <use xlink:href="#m240c8bb754" x="445.090909" y="263.31588" style="fill: #ffc000; stroke: #ffc000; stroke-linejoin: miter"/>
     <use xlink:href="#m240c8bb754" x="470.454545" y="277.3422" style="fill: #ffc000; stroke: #ffc000; stroke-linejoin: miter"/>
     <use xlink:href="#m240c8bb754" x="495.818182" y="289.64988" style="fill: #ffc000; stroke: #ffc000; stroke-linejoin: miter"/>
     <use xlink:href="#m240c8bb754" x="521.181818" y="303.45444" style="fill: #ffc000; stroke: #ffc000; stroke-linejoin: miter"/>
     <use xlink:href="#m240c8bb754" x="546.545455" y="316.57986" style="fill: #ffc000; stroke: #ffc000; stroke-linejoin: miter"/>
     <use xlink:href="#m240c8bb754" x="571.909091" y="328.87368" style="fill: #ffc000; stroke: #ffc000; stroke-linejoin: miter"/>
     <use xlink:href="#m240c8bb754" x="597.272727" y="340.66854" style="fill: #ffc000; stroke: #ffc000; stroke-linejoin: miter"/>
     <use xlink:href="#m240c8bb754" x="622.636364" y="351.92286" style="fill: #ffc000; stroke: #ffc000; stroke-linejoin: miter"/>
    </g>
   </g>
   <g id="line2d_28">
    <path d="M 115.363636 83.5101 
L 140.727273 88.52742 
L 166.090909 93.86352 
L 191.454545 99.5877 
L 216.818182 107.43246 
L 242.181818 115.74846 
L 267.545455 126.2682 
L 292.909091 139.72626 
L 318.272727 154.5426 
L 343.636364 173.35062 
L 369 197.20368 
L 394.363636 226.53144 
L 419.727273 255.0276 
L 445.090909 278.02134 
L 470.454545 295.95618 
L 495.818182 311.10516 
L 521.181818 322.71984 
L 546.545455 332.61588 
L 571.909091 340.84872 
L 597.272727 347.69556 
L 622.636364 351.32688 
" clip-path="url(#p59fe59a410)" style="fill: none; stroke-dasharray: 2.5,4.125; stroke-dashoffset: 0; stroke: #ff0400; stroke-width: 2.5"/>
    <defs>
     <path id="mc812653c20" d="M -0 4 
L 4 -4 
L -4 -4 
z
" style="stroke: #ff0400; stroke-linejoin: miter"/>
    </defs>
    <g clip-path="url(#p59fe59a410)">
     <use xlink:href="#mc812653c20" x="115.363636" y="83.5101" style="fill: #ff0400; stroke: #ff0400; stroke-linejoin: miter"/>
     <use xlink:href="#mc812653c20" x="140.727273" y="88.52742" style="fill: #ff0400; stroke: #ff0400; stroke-linejoin: miter"/>
     <use xlink:href="#mc812653c20" x="166.090909" y="93.86352" style="fill: #ff0400; stroke: #ff0400; stroke-linejoin: miter"/>
     <use xlink:href="#mc812653c20" x="191.454545" y="99.5877" style="fill: #ff0400; stroke: #ff0400; stroke-linejoin: miter"/>
     <use xlink:href="#mc812653c20" x="216.818182" y="107.43246" style="fill: #ff0400; stroke: #ff0400; stroke-linejoin: miter"/>
     <use xlink:href="#mc812653c20" x="242.181818" y="115.74846" style="fill: #ff0400; stroke: #ff0400; stroke-linejoin: miter"/>
     <use xlink:href="#mc812653c20" x="267.545455" y="126.2682" style="fill: #ff0400; stroke: #ff0400; stroke-linejoin: miter"/>
     <use xlink:href="#mc812653c20" x="292.909091" y="139.72626" style="fill: #ff0400; stroke: #ff0400; stroke-linejoin: miter"/>
     <use xlink:href="#mc812653c20" x="318.272727" y="154.5426" style="fill: #ff0400; stroke: #ff0400; stroke-linejoin: miter"/>
     <use xlink:href="#mc812653c20" x="343.636364" y="173.35062" style="fill: #ff0400; stroke: #ff0400; stroke-linejoin: miter"/>
     <use xlink:href="#mc812653c20" x="369" y="197.20368" style="fill: #ff0400; stroke: #ff0400; stroke-linejoin: miter"/>
     <use xlink:href="#mc812653c20" x="394.363636" y="226.53144" style="fill: #ff0400; stroke: #ff0400; stroke-linejoin: miter"/>
     <use xlink:href="#mc812653c20" x="419.727273" y="255.0276" style="fill: #ff0400; stroke: #ff0400; stroke-linejoin: miter"/>
     <use xlink:href="#mc812653c20" x="445.090909" y="278.02134" style="fill: #ff0400; stroke: #ff0400; stroke-linejoin: miter"/>
     <use xlink:href="#mc812653c20" x="470.454545" y="295.95618" style="fill: #ff0400; stroke: #ff0400; stroke-linejoin: miter"/>
     <use xlink:href="#mc812653c20" x="495.818182" y="311.10516" style="fill: #ff0400; stroke: #ff0400; stroke-linejoin: miter"/>
     <use xlink:href="#mc812653c20" x="521.181818" y="322.71984" style="fill: #ff0400; stroke: #ff0400; stroke-linejoin: miter"/>
     <use xlink:href="#mc812653c20" x="546.545455" y="332.61588" style="fill: #ff0400; stroke: #ff0400; stroke-linejoin: miter"/>
     <use xlink:href="#mc812653c20" x="571.909091" y="340.84872" style="fill: #ff0400; stroke: #ff0400; stroke-linejoin: miter"/>
     <use xlink:href="#mc812653c20" x="597.272727" y="347.69556" style="fill: #ff0400; stroke: #ff0400; stroke-linejoin: miter"/>
     <use xlink:href="#mc812653c20" x="622.636364" y="351.32688" style="fill: #ff0400; stroke: #ff0400; stroke-linejoin: miter"/>
    </g>
   </g>
   <g id="line2d_29">
    <path d="M 115.363636 95.24952 
L 140.727273 95.55444 
L 166.090909 95.65146 
L 191.454545 95.83164 
L 216.818182 97.52256 
L 242.181818 99.21348 
L 267.545455 103.06656 
L 292.909091 110.06586 
L 318.272727 122.3874 
L 343.636364 143.05266 
L 369 173.29518 
L 394.363636 194.98608 
L 419.727273 209.38662 
L 445.090909 222.48432 
L 470.454545 235.26324 
L 495.818182 249.88554 
L 521.181818 265.67208 
L 546.545455 280.79334 
L 571.909091 297.32832 
L 597.272727 315.41562 
L 622.636364 336.01158 
" clip-path="url(#p59fe59a410)" style="fill: none; stroke: #a52a2a; stroke-width: 2.5; stroke-linecap: square"/>
    <defs>
     <path id="m3efef52ff8" d="M 0 5.656854 
L 5.656854 0 
L 0 -5.656854 
L -5.656854 0 
z
" style="stroke: #a52a2a; stroke-linejoin: miter"/>
    </defs>
    <g clip-path="url(#p59fe59a410)">
     <use xlink:href="#m3efef52ff8" x="115.363636" y="95.24952" style="fill: #a52a2a; stroke: #a52a2a; stroke-linejoin: miter"/>
     <use xlink:href="#m3efef52ff8" x="140.727273" y="95.55444" style="fill: #a52a2a; stroke: #a52a2a; stroke-linejoin: miter"/>
     <use xlink:href="#m3efef52ff8" x="166.090909" y="95.65146" style="fill: #a52a2a; stroke: #a52a2a; stroke-linejoin: miter"/>
     <use xlink:href="#m3efef52ff8" x="191.454545" y="95.83164" style="fill: #a52a2a; stroke: #a52a2a; stroke-linejoin: miter"/>
     <use xlink:href="#m3efef52ff8" x="216.818182" y="97.52256" style="fill: #a52a2a; stroke: #a52a2a; stroke-linejoin: miter"/>
     <use xlink:href="#m3efef52ff8" x="242.181818" y="99.21348" style="fill: #a52a2a; stroke: #a52a2a; stroke-linejoin: miter"/>
     <use xlink:href="#m3efef52ff8" x="267.545455" y="103.06656" style="fill: #a52a2a; stroke: #a52a2a; stroke-linejoin: miter"/>
     <use xlink:href="#m3efef52ff8" x="292.909091" y="110.06586" style="fill: #a52a2a; stroke: #a52a2a; stroke-linejoin: miter"/>
     <use xlink:href="#m3efef52ff8" x="318.272727" y="122.3874" style="fill: #a52a2a; stroke: #a52a2a; stroke-linejoin: miter"/>
     <use xlink:href="#m3efef52ff8" x="343.636364" y="143.05266" style="fill: #a52a2a; stroke: #a52a2a; stroke-linejoin: miter"/>
     <use xlink:href="#m3efef52ff8" x="369" y="173.29518" style="fill: #a52a2a; stroke: #a52a2a; stroke-linejoin: miter"/>
     <use xlink:href="#m3efef52ff8" x="394.363636" y="194.98608" style="fill: #a52a2a; stroke: #a52a2a; stroke-linejoin: miter"/>
     <use xlink:href="#m3efef52ff8" x="419.727273" y="209.38662" style="fill: #a52a2a; stroke: #a52a2a; stroke-linejoin: miter"/>
     <use xlink:href="#m3efef52ff8" x="445.090909" y="222.48432" style="fill: #a52a2a; stroke: #a52a2a; stroke-linejoin: miter"/>
     <use xlink:href="#m3efef52ff8" x="470.454545" y="235.26324" style="fill: #a52a2a; stroke: #a52a2a; stroke-linejoin: miter"/>
     <use xlink:href="#m3efef52ff8" x="495.818182" y="249.88554" style="fill: #a52a2a; stroke: #a52a2a; stroke-linejoin: miter"/>
     <use xlink:href="#m3efef52ff8" x="521.181818" y="265.67208" style="fill: #a52a2a; stroke: #a52a2a; stroke-linejoin: miter"/>
     <use xlink:href="#m3efef52ff8" x="546.545455" y="280.79334" style="fill: #a52a2a; stroke: #a52a2a; stroke-linejoin: miter"/>
     <use xlink:href="#m3efef52ff8" x="571.909091" y="297.32832" style="fill: #a52a2a; stroke: #a52a2a; stroke-linejoin: miter"/>
     <use xlink:href="#m3efef52ff8" x="597.272727" y="315.41562" style="fill: #a52a2a; stroke: #a52a2a; stroke-linejoin: miter"/>
     <use xlink:href="#m3efef52ff8" x="622.636364" y="336.01158" style="fill: #a52a2a; stroke: #a52a2a; stroke-linejoin: miter"/>
    </g>
   </g>
   <g id="patch_3">
    <path d="M 90 384.48 
L 90 51.84 
" style="fill: none; stroke: #000000; stroke-width: 0.8; stroke-linejoin: miter; stroke-linecap: square"/>
   </g>
   <g id="patch_4">
    <path d="M 648 384.48 
L 648 51.84 
" style="fill: none; stroke: #000000; stroke-width: 0.8; stroke-linejoin: miter; stroke-linecap: square"/>
   </g>
   <g id="patch_5">
    <path d="M 90 384.48 
L 648 384.48 
" style="fill: none; stroke: #000000; stroke-width: 0.8; stroke-linejoin: miter; stroke-linecap: square"/>
   </g>
   <g id="patch_6">
    <path d="M 90 51.84 
L 648 51.84 
" style="fill: none; stroke: #000000; stroke-width: 0.8; stroke-linejoin: miter; stroke-linecap: square"/>
   </g>
   <g id="text_15">
    <!-- Classifier Robustness to Label Perturbation -->
    <g transform="translate(240.208125 45.84) scale(0.12 -0.12)">
     <defs>
      <path id="DejaVuSans-43" d="M 4122 4306 
L 4122 3641 
Q 3803 3938 3442 4084 
Q 3081 4231 2675 4231 
Q 1875 4231 1450 3742 
Q 1025 3253 1025 2328 
Q 1025 1406 1450 917 
Q 1875 428 2675 428 
Q 3081 428 3442 575 
Q 3803 722 4122 1019 
L 4122 359 
Q 3791 134 3420 21 
Q 3050 -91 2638 -91 
Q 1578 -91 968 557 
Q 359 1206 359 2328 
Q 359 3453 968 4101 
Q 1578 4750 2638 4750 
Q 3056 4750 3426 4639 
Q 3797 4528 4122 4306 
z
" transform="scale(0.015625)"/>
      <path id="DejaVuSans-6c" d="M 603 4863 
L 1178 4863 
L 1178 0 
L 603 0 
L 603 4863 
z
" transform="scale(0.015625)"/>
      <path id="DejaVuSans-73" d="M 2834 3397 
L 2834 2853 
Q 2591 2978 2328 3040 
Q 2066 3103 1784 3103 
Q 1356 3103 1142 2972 
Q 928 2841 928 2578 
Q 928 2378 1081 2264 
Q 1234 2150 1697 2047 
L 1894 2003 
Q 2506 1872 2764 1633 
Q 3022 1394 3022 966 
Q 3022 478 2636 193 
Q 2250 -91 1575 -91 
Q 1294 -91 989 -36 
Q 684 19 347 128 
L 347 722 
Q 666 556 975 473 
Q 1284 391 1588 391 
Q 1994 391 2212 530 
Q 2431 669 2431 922 
Q 2431 1156 2273 1281 
Q 2116 1406 1581 1522 
L 1381 1569 
Q 847 1681 609 1914 
Q 372 2147 372 2553 
Q 372 3047 722 3315 
Q 1072 3584 1716 3584 
Q 2034 3584 2315 3537 
Q 2597 3491 2834 3397 
z
" transform="scale(0.015625)"/>
      <path id="DejaVuSans-66" d="M 2375 4863 
L 2375 4384 
L 1825 4384 
Q 1516 4384 1395 4259 
Q 1275 4134 1275 3809 
L 1275 3500 
L 2222 3500 
L 2222 3053 
L 1275 3053 
L 1275 0 
L 697 0 
L 697 3053 
L 147 3053 
L 147 3500 
L 697 3500 
L 697 3744 
Q 697 4328 969 4595 
Q 1241 4863 1831 4863 
L 2375 4863 
z
" transform="scale(0.015625)"/>
      <path id="DejaVuSans-52" d="M 2841 2188 
Q 3044 2119 3236 1894 
Q 3428 1669 3622 1275 
L 4263 0 
L 3584 0 
L 2988 1197 
Q 2756 1666 2539 1819 
Q 2322 1972 1947 1972 
L 1259 1972 
L 1259 0 
L 628 0 
L 628 4666 
L 2053 4666 
Q 2853 4666 3247 4331 
Q 3641 3997 3641 3322 
Q 3641 2881 3436 2590 
Q 3231 2300 2841 2188 
z
M 1259 4147 
L 1259 2491 
L 2053 2491 
Q 2509 2491 2742 2702 
Q 2975 2913 2975 3322 
Q 2975 3731 2742 3939 
Q 2509 4147 2053 4147 
L 1259 4147 
z
" transform="scale(0.015625)"/>
      <path id="DejaVuSans-4c" d="M 628 4666 
L 1259 4666 
L 1259 531 
L 3531 531 
L 3531 0 
L 628 0 
L 628 4666 
z
" transform="scale(0.015625)"/>
     </defs>
     <use xlink:href="#DejaVuSans-43"/>
     <use xlink:href="#DejaVuSans-6c" transform="translate(69.824219 0)"/>
     <use xlink:href="#DejaVuSans-61" transform="translate(97.607422 0)"/>
     <use xlink:href="#DejaVuSans-73" transform="translate(158.886719 0)"/>
     <use xlink:href="#DejaVuSans-73" transform="translate(210.986328 0)"/>
     <use xlink:href="#DejaVuSans-69" transform="translate(263.085938 0)"/>
     <use xlink:href="#DejaVuSans-66" transform="translate(290.869141 0)"/>
     <use xlink:href="#DejaVuSans-69" transform="translate(326.074219 0)"/>
     <use xlink:href="#DejaVuSans-65" transform="translate(353.857422 0)"/>
     <use xlink:href="#DejaVuSans-72" transform="translate(415.380859 0)"/>
     <use xlink:href="#DejaVuSans-20" transform="translate(456.494141 0)"/>
     <use xlink:href="#DejaVuSans-52" transform="translate(488.28125 0)"/>
     <use xlink:href="#DejaVuSans-6f" transform="translate(553.263672 0)"/>
     <use xlink:href="#DejaVuSans-62" transform="translate(614.445312 0)"/>
     <use xlink:href="#DejaVuSans-75" transform="translate(677.921875 0)"/>
     <use xlink:href="#DejaVuSans-73" transform="translate(741.300781 0)"/>
     <use xlink:href="#DejaVuSans-74" transform="translate(793.400391 0)"/>
     <use xlink:href="#DejaVuSans-6e" transform="translate(832.609375 0)"/>
     <use xlink:href="#DejaVuSans-65" transform="translate(895.988281 0)"/>
     <use xlink:href="#DejaVuSans-73" transform="translate(957.511719 0)"/>
     <use xlink:href="#DejaVuSans-73" transform="translate(1009.611328 0)"/>
     <use xlink:href="#DejaVuSans-20" transform="translate(1061.710938 0)"/>
     <use xlink:href="#DejaVuSans-74" transform="translate(1093.498047 0)"/>
     <use xlink:href="#DejaVuSans-6f" transform="translate(1132.707031 0)"/>
     <use xlink:href="#DejaVuSans-20" transform="translate(1193.888672 0)"/>
     <use xlink:href="#DejaVuSans-4c" transform="translate(1225.675781 0)"/>
     <use xlink:href="#DejaVuSans-61" transform="translate(1281.388672 0)"/>
     <use xlink:href="#DejaVuSans-62" transform="translate(1342.667969 0)"/>
     <use xlink:href="#DejaVuSans-65" transform="translate(1406.144531 0)"/>
     <use xlink:href="#DejaVuSans-6c" transform="translate(1467.667969 0)"/>
     <use xlink:href="#DejaVuSans-20" transform="translate(1495.451172 0)"/>
     <use xlink:href="#DejaVuSans-50" transform="translate(1527.238281 0)"/>
     <use xlink:href="#DejaVuSans-65" transform="translate(1583.916016 0)"/>
     <use xlink:href="#DejaVuSans-72" transform="translate(1645.439453 0)"/>
     <use xlink:href="#DejaVuSans-74" transform="translate(1686.552734 0)"/>
     <use xlink:href="#DejaVuSans-75" transform="translate(1725.761719 0)"/>
     <use xlink:href="#DejaVuSans-72" transform="translate(1789.140625 0)"/>
     <use xlink:href="#DejaVuSans-62" transform="translate(1830.253906 0)"/>
     <use xlink:href="#DejaVuSans-61" transform="translate(1893.730469 0)"/>
     <use xlink:href="#DejaVuSans-74" transform="translate(1955.009766 0)"/>
     <use xlink:href="#DejaVuSans-69" transform="translate(1994.21875 0)"/>
     <use xlink:href="#DejaVuSans-6f" transform="translate(2022.001953 0)"/>
     <use xlink:href="#DejaVuSans-6e" transform="translate(2083.183594 0)"/>
    </g>
   </g>
   <g id="legend_1">
    <g id="patch_7">
     <path d="M 559.90625 149.02125 
L 641 149.02125 
Q 643 149.02125 643 147.02125 
L 643 58.84 
Q 643 56.84 641 56.84 
L 559.90625 56.84 
Q 557.90625 56.84 557.90625 58.84 
L 557.90625 147.02125 
Q 557.90625 149.02125 559.90625 149.02125 
z
" style="fill: #ffffff; opacity: 0.8; stroke: #cccccc; stroke-linejoin: miter"/>
    </g>
    <g id="text_16">
     <!-- Classifier -->
     <g transform="translate(577.628906 68.438437) scale(0.1 -0.1)">
      <use xlink:href="#DejaVuSans-43"/>
      <use xlink:href="#DejaVuSans-6c" transform="translate(69.824219 0)"/>
      <use xlink:href="#DejaVuSans-61" transform="translate(97.607422 0)"/>
      <use xlink:href="#DejaVuSans-73" transform="translate(158.886719 0)"/>
      <use xlink:href="#DejaVuSans-73" transform="translate(210.986328 0)"/>
      <use xlink:href="#DejaVuSans-69" transform="translate(263.085938 0)"/>
      <use xlink:href="#DejaVuSans-66" transform="translate(290.869141 0)"/>
      <use xlink:href="#DejaVuSans-69" transform="translate(326.074219 0)"/>
      <use xlink:href="#DejaVuSans-65" transform="translate(353.857422 0)"/>
      <use xlink:href="#DejaVuSans-72" transform="translate(415.380859 0)"/>
     </g>
    </g>
    <g id="line2d_30">
     <path d="M 561.90625 79.616562 
L 571.90625 79.616562 
L 581.90625 79.616562 
" style="fill: none; stroke: #00b0f0; stroke-width: 2.5; stroke-linecap: square"/>
     <g>
      <use xlink:href="#mcecb7b72e9" x="571.90625" y="79.616562" style="fill: #00b0f0; stroke: #00b0f0"/>
     </g>
    </g>
    <g id="text_17">
     <!-- ACM_SVM -->
     <g transform="translate(589.90625 83.116562) scale(0.1 -0.1)">
      <defs>
       <path id="DejaVuSans-4d" d="M 628 4666 
L 1569 4666 
L 2759 1491 
L 3956 4666 
L 4897 4666 
L 4897 0 
L 4281 0 
L 4281 4097 
L 3078 897 
L 2444 897 
L 1241 4097 
L 1241 0 
L 628 0 
L 628 4666 
z
" transform="scale(0.015625)"/>
       <path id="DejaVuSans-5f" d="M 3263 -1063 
L 3263 -1509 
L -63 -1509 
L -63 -1063 
L 3263 -1063 
z
" transform="scale(0.015625)"/>
       <path id="DejaVuSans-53" d="M 3425 4513 
L 3425 3897 
Q 3066 4069 2747 4153 
Q 2428 4238 2131 4238 
Q 1616 4238 1336 4038 
Q 1056 3838 1056 3469 
Q 1056 3159 1242 3001 
Q 1428 2844 1947 2747 
L 2328 2669 
Q 3034 2534 3370 2195 
Q 3706 1856 3706 1288 
Q 3706 609 3251 259 
Q 2797 -91 1919 -91 
Q 1588 -91 1214 -16 
Q 841 59 441 206 
L 441 856 
Q 825 641 1194 531 
Q 1563 422 1919 422 
Q 2459 422 2753 634 
Q 3047 847 3047 1241 
Q 3047 1584 2836 1778 
Q 2625 1972 2144 2069 
L 1759 2144 
Q 1053 2284 737 2584 
Q 422 2884 422 3419 
Q 422 4038 858 4394 
Q 1294 4750 2059 4750 
Q 2388 4750 2728 4690 
Q 3069 4631 3425 4513 
z
" transform="scale(0.015625)"/>
       <path id="DejaVuSans-56" d="M 1831 0 
L 50 4666 
L 709 4666 
L 2188 738 
L 3669 4666 
L 4325 4666 
L 2547 0 
L 1831 0 
z
" transform="scale(0.015625)"/>
      </defs>
      <use xlink:href="#DejaVuSans-41"/>
      <use xlink:href="#DejaVuSans-43" transform="translate(66.658203 0)"/>
      <use xlink:href="#DejaVuSans-4d" transform="translate(136.482422 0)"/>
      <use xlink:href="#DejaVuSans-5f" transform="translate(222.761719 0)"/>
      <use xlink:href="#DejaVuSans-53" transform="translate(272.761719 0)"/>
      <use xlink:href="#DejaVuSans-56" transform="translate(336.238281 0)"/>
      <use xlink:href="#DejaVuSans-4d" transform="translate(404.646484 0)"/>
     </g>
    </g>
    <g id="line2d_31">
     <path d="M 561.90625 94.572812 
L 571.90625 94.572812 
L 581.90625 94.572812 
" style="fill: none; stroke-dasharray: 9.25,4; stroke-dashoffset: 0; stroke: #12b65c; stroke-width: 2.5"/>
     <g>
      <use xlink:href="#md5883bdcc4" x="571.90625" y="94.572812" style="fill: #12b65c; stroke: #12b65c; stroke-linejoin: miter"/>
     </g>
    </g>
    <g id="text_18">
     <!-- CASIM -->
     <g transform="translate(589.90625 98.072812) scale(0.1 -0.1)">
      <defs>
       <path id="DejaVuSans-49" d="M 628 4666 
L 1259 4666 
L 1259 0 
L 628 0 
L 628 4666 
z
" transform="scale(0.015625)"/>
      </defs>
      <use xlink:href="#DejaVuSans-43"/>
      <use xlink:href="#DejaVuSans-41" transform="translate(69.824219 0)"/>
      <use xlink:href="#DejaVuSans-53" transform="translate(138.232422 0)"/>
      <use xlink:href="#DejaVuSans-49" transform="translate(201.708984 0)"/>
      <use xlink:href="#DejaVuSans-4d" transform="translate(231.201172 0)"/>
     </g>
    </g>
    <g id="line2d_32">
     <path d="M 561.90625 109.250937 
L 571.90625 109.250937 
L 581.90625 109.250937 
" style="fill: none; stroke-dasharray: 16,4,2.5,4; stroke-dashoffset: 0; stroke: #ffc000; stroke-width: 2.5"/>
     <g>
      <use xlink:href="#m240c8bb754" x="571.90625" y="109.250937" style="fill: #ffc000; stroke: #ffc000; stroke-linejoin: miter"/>
     </g>
    </g>
    <g id="text_19">
     <!-- EAC_1NN -->
     <g transform="translate(589.90625 112.750937) scale(0.1 -0.1)">
      <defs>
       <path id="DejaVuSans-45" d="M 628 4666 
L 3578 4666 
L 3578 4134 
L 1259 4134 
L 1259 2753 
L 3481 2753 
L 3481 2222 
L 1259 2222 
L 1259 531 
L 3634 531 
L 3634 0 
L 628 0 
L 628 4666 
z
" transform="scale(0.015625)"/>
       <path id="DejaVuSans-4e" d="M 628 4666 
L 1478 4666 
L 3547 763 
L 3547 4666 
L 4159 4666 
L 4159 0 
L 3309 0 
L 1241 3903 
L 1241 0 
L 628 0 
L 628 4666 
z
" transform="scale(0.015625)"/>
      </defs>
      <use xlink:href="#DejaVuSans-45"/>
      <use xlink:href="#DejaVuSans-41" transform="translate(63.183594 0)"/>
      <use xlink:href="#DejaVuSans-43" transform="translate(129.841797 0)"/>
      <use xlink:href="#DejaVuSans-5f" transform="translate(199.666016 0)"/>
      <use xlink:href="#DejaVuSans-31" transform="translate(249.666016 0)"/>
      <use xlink:href="#DejaVuSans-4e" transform="translate(313.289062 0)"/>
      <use xlink:href="#DejaVuSans-4e" transform="translate(388.09375 0)"/>
     </g>
    </g>
    <g id="line2d_33">
     <path d="M 561.90625 124.207187 
L 571.90625 124.207187 
L 581.90625 124.207187 
" style="fill: none; stroke-dasharray: 2.5,4.125; stroke-dashoffset: 0; stroke: #ff0400; stroke-width: 2.5"/>
     <g>
      <use xlink:href="#mc812653c20" x="571.90625" y="124.207187" style="fill: #ff0400; stroke: #ff0400; stroke-linejoin: miter"/>
     </g>
    </g>
    <g id="text_20">
     <!-- MBW_LR -->
     <g transform="translate(589.90625 127.707187) scale(0.1 -0.1)">
      <defs>
       <path id="DejaVuSans-42" d="M 1259 2228 
L 1259 519 
L 2272 519 
Q 2781 519 3026 730 
Q 3272 941 3272 1375 
Q 3272 1813 3026 2020 
Q 2781 2228 2272 2228 
L 1259 2228 
z
M 1259 4147 
L 1259 2741 
L 2194 2741 
Q 2656 2741 2882 2914 
Q 3109 3088 3109 3444 
Q 3109 3797 2882 3972 
Q 2656 4147 2194 4147 
L 1259 4147 
z
M 628 4666 
L 2241 4666 
Q 2963 4666 3353 4366 
Q 3744 4066 3744 3513 
Q 3744 3084 3544 2831 
Q 3344 2578 2956 2516 
Q 3422 2416 3680 2098 
Q 3938 1781 3938 1306 
Q 3938 681 3513 340 
Q 3088 0 2303 0 
L 628 0 
L 628 4666 
z
" transform="scale(0.015625)"/>
       <path id="DejaVuSans-57" d="M 213 4666 
L 850 4666 
L 1831 722 
L 2809 4666 
L 3519 4666 
L 4500 722 
L 5478 4666 
L 6119 4666 
L 4947 0 
L 4153 0 
L 3169 4050 
L 2175 0 
L 1381 0 
L 213 4666 
z
" transform="scale(0.015625)"/>
      </defs>
      <use xlink:href="#DejaVuSans-4d"/>
      <use xlink:href="#DejaVuSans-42" transform="translate(86.279297 0)"/>
      <use xlink:href="#DejaVuSans-57" transform="translate(151.257812 0)"/>
      <use xlink:href="#DejaVuSans-5f" transform="translate(250.134766 0)"/>
      <use xlink:href="#DejaVuSans-4c" transform="translate(300.134766 0)"/>
      <use xlink:href="#DejaVuSans-52" transform="translate(355.847656 0)"/>
     </g>
    </g>
    <g id="line2d_34">
     <path d="M 561.90625 139.163437 
L 571.90625 139.163437 
L 581.90625 139.163437 
" style="fill: none; stroke: #a52a2a; stroke-width: 2.5; stroke-linecap: square"/>
     <g>
      <use xlink:href="#m3efef52ff8" x="571.90625" y="139.163437" style="fill: #a52a2a; stroke: #a52a2a; stroke-linejoin: miter"/>
     </g>
    </g>
    <g id="text_21">
     <!-- WDI_1NN -->
     <g transform="translate(589.90625 142.663437) scale(0.1 -0.1)">
      <defs>
       <path id="DejaVuSans-44" d="M 1259 4147 
L 1259 519 
L 2022 519 
Q 2988 519 3436 956 
Q 3884 1394 3884 2338 
Q 3884 3275 3436 3711 
Q 2988 4147 2022 4147 
L 1259 4147 
z
M 628 4666 
L 1925 4666 
Q 3281 4666 3915 4102 
Q 4550 3538 4550 2338 
Q 4550 1131 3912 565 
Q 3275 0 1925 0 
L 628 0 
L 628 4666 
z
" transform="scale(0.015625)"/>
      </defs>
      <use xlink:href="#DejaVuSans-57"/>
      <use xlink:href="#DejaVuSans-44" transform="translate(98.876953 0)"/>
      <use xlink:href="#DejaVuSans-49" transform="translate(175.878906 0)"/>
      <use xlink:href="#DejaVuSans-5f" transform="translate(205.371094 0)"/>
      <use xlink:href="#DejaVuSans-31" transform="translate(255.371094 0)"/>
      <use xlink:href="#DejaVuSans-4e" transform="translate(318.994141 0)"/>
      <use xlink:href="#DejaVuSans-4e" transform="translate(393.798828 0)"/>
     </g>
    </g>
   </g>
  </g>
 </g>
 <defs>
  <clipPath id="p59fe59a410">
   <rect x="90" y="51.84" width="558" height="332.64"/>
  </clipPath>
 </defs>
</svg>
